<svg width="431" height="197" viewBox="0 0 431 197" fill="none" xmlns="http://www.w3.org/2000/svg">
<path d="M81.4998 58.2676C97.8365 58.2676 111.912 67.9413 118.315 81.8721L118 81.7676L115 83.7676L101 72.7676L95.9998 98.7676L86.9998 93.2676L84.9998 106.268L69.4998 94.2676L62.4998 134.268L62.7801 134.688C49.8365 127.928 40.9998 114.381 40.9998 98.7676C40.9998 76.4 59.1323 58.2676 81.4998 58.2676Z" fill="#5399C8"/>
<path d="M82.5 34.2666C118.499 36.7676 133.499 46.2682 128.5 60.7676C127.204 64.5274 124.565 70.2025 120.509 76.9717C113.006 63.4334 98.5746 54.2668 82 54.2666C57.6997 54.2666 38.0004 73.9664 38 98.2666C38 114.697 47.0068 129.022 60.3516 136.579C52.002 141.529 42.844 145.979 32.8496 149.639C31.6372 150.674 26.3163 150.392 16.5 113.767C8.00038 66.267 36.3845 34.2666 82.5 34.2666Z" fill="#EE9C46"/>
<path d="M91.4998 142.768C98.9715 139.032 106.544 133.625 112.5 127.768C118.455 121.91 123.358 112.692 126 104.768C132.5 85.2676 140 62.2676 140 62.2676C140 62.2676 150.387 79.77 151.5 92.2676C152.648 105.16 151.618 112.84 148 125.268C144.249 138.149 140.025 145.661 132.5 156.768C124.974 167.875 115.399 179.168 105 188.268C96.9998 195.268 91.7435 196.689 80.4998 195.768C71.0097 194.99 62.3712 184.562 54.4998 177.768C47.3896 171.63 41.9998 163.268 41.9998 163.268C41.9998 163.268 54.4998 158.768 68.4998 154.268C82.4998 149.768 80.4998 148.268 91.4998 142.768Z" fill="#5399C8"/>
<path fill-rule="evenodd" clip-rule="evenodd" d="M151.801 29.9799L165.903 37.2543C166.357 37.3438 166.82 37.2735 167.222 37.0529C167.657 36.8074 167.967 36.4144 168.09 35.9693C168.203 34.2696 161.649 27.5464 154.209 20.9942L151.801 29.9799Z" fill="#F79730"/>
<path fill-rule="evenodd" clip-rule="evenodd" d="M153.137 1.35782C151.191 0.83282 149.696 1.86783 149.248 3.52763L145.59 17.0723C139.503 18.4036 128.374 20.6117 124.863 22.6387C124.374 22.9213 124.19 23.1004 124.13 23.1663C123.924 24.0868 124.444 25.0161 125.333 25.3186L143.091 26.3189L140.372 36.3842C140.372 36.3842 134.85 38.2165 134.074 38.5382C132.992 38.9884 132.34 40.5403 135.14 40.3952C138.408 40.222 142.228 40.008 142.228 40.008C142.228 40.008 146.094 42.4992 148.333 43.8089C151.112 45.3525 151.282 43.7269 150.411 42.609C149.545 41.4942 146.613 37.7265 146.613 37.7265L149.054 27.9006L151.588 18.5067L155.197 5.1396C155.647 3.47858 155.077 1.88104 153.137 1.35782Z" fill="#F79730"/>
<path d="M0 157.001C0 157.001 34.3517 155.528 53.5 146.501C71.732 137.906 81.9224 129.421 96.5 115.501C118.473 94.5188 138 49.001 138 49.001C138 49.001 136.215 67.8473 128.5 84.001C119.76 102.3 117.444 113.969 101.5 126.501C88.043 137.078 71.8176 148.833 55.5 154.001C38.2292 159.471 9.5 160.001 9.5 160.001L0 157.001Z" fill="#EE9C46"/>
<path d="M174.202 111V81.9091H186.332C188.51 81.9091 190.333 82.2169 191.801 82.8324C193.278 83.4479 194.386 84.3097 195.125 85.4176C195.873 86.5256 196.247 87.8087 196.247 89.267C196.247 90.375 196.015 91.3646 195.551 92.2358C195.087 93.0975 194.448 93.8125 193.634 94.3807C192.819 94.9489 191.877 95.3466 190.807 95.5739V95.858C191.981 95.9148 193.065 96.232 194.06 96.8097C195.063 97.3873 195.868 98.1922 196.474 99.2244C197.08 100.247 197.384 101.459 197.384 102.861C197.384 104.423 196.986 105.82 196.19 107.051C195.395 108.273 194.244 109.239 192.739 109.949C191.233 110.65 189.405 111 187.256 111H174.202ZM181.233 105.332H185.58C187.104 105.332 188.226 105.044 188.946 104.466C189.675 103.888 190.04 103.083 190.04 102.051C190.04 101.303 189.865 100.659 189.514 100.119C189.164 99.5701 188.667 99.1487 188.023 98.8551C187.379 98.5521 186.607 98.4006 185.707 98.4006H181.233V105.332ZM181.233 93.8693H185.125C185.892 93.8693 186.574 93.7415 187.17 93.4858C187.767 93.2301 188.231 92.8608 188.562 92.3778C188.903 91.8949 189.074 91.3125 189.074 90.6307C189.074 89.6553 188.728 88.8883 188.037 88.3295C187.346 87.7708 186.413 87.4915 185.239 87.4915H181.233V93.8693ZM200.764 111V81.9091H221.048V87.6193H207.795V93.5852H220.011V99.3097H207.795V105.29H221.048V111H200.764ZM241.176 90.6307C241.081 89.589 240.66 88.7794 239.912 88.2017C239.173 87.6146 238.117 87.321 236.744 87.321C235.835 87.321 235.078 87.4394 234.472 87.6761C233.866 87.9129 233.411 88.2396 233.108 88.6562C232.805 89.0634 232.649 89.5322 232.639 90.0625C232.62 90.4981 232.705 90.8816 232.895 91.2131C233.094 91.5445 233.378 91.8381 233.747 92.0938C234.126 92.34 234.58 92.5578 235.111 92.7472C235.641 92.9366 236.238 93.1023 236.901 93.2443L239.401 93.8125C240.84 94.125 242.109 94.5417 243.207 95.0625C244.315 95.5833 245.243 96.2036 245.991 96.9233C246.749 97.643 247.322 98.4716 247.71 99.4091C248.098 100.347 248.297 101.398 248.307 102.562C248.297 104.4 247.833 105.976 246.915 107.293C245.996 108.609 244.675 109.617 242.952 110.318C241.238 111.019 239.169 111.369 236.744 111.369C234.311 111.369 232.189 111.005 230.381 110.276C228.572 109.546 227.166 108.438 226.162 106.952C225.158 105.465 224.642 103.585 224.614 101.312H231.347C231.403 102.25 231.654 103.031 232.099 103.656C232.545 104.281 233.155 104.755 233.932 105.077C234.718 105.399 235.627 105.56 236.659 105.56C237.606 105.56 238.411 105.432 239.074 105.176C239.746 104.92 240.262 104.565 240.622 104.111C240.982 103.656 241.167 103.135 241.176 102.548C241.167 101.999 240.996 101.53 240.665 101.142C240.333 100.744 239.822 100.403 239.131 100.119C238.449 99.8258 237.578 99.5559 236.517 99.3097L233.477 98.5994C230.958 98.0218 228.974 97.089 227.526 95.8011C226.077 94.5038 225.357 92.7519 225.366 90.5455C225.357 88.7462 225.84 87.1695 226.815 85.8153C227.791 84.4612 229.14 83.4053 230.864 82.6477C232.587 81.8902 234.552 81.5114 236.759 81.5114C239.012 81.5114 240.968 81.8949 242.625 82.6619C244.292 83.4195 245.584 84.4848 246.503 85.858C247.421 87.2311 247.89 88.822 247.909 90.6307H241.176ZM250.906 87.6193V81.9091H275.494V87.6193H266.673V111H259.741V87.6193H250.906ZM305.058 96.4545C305.058 99.6553 304.442 102.368 303.211 104.594C301.98 106.819 300.313 108.509 298.211 109.665C296.118 110.82 293.77 111.398 291.165 111.398C288.552 111.398 286.199 110.815 284.106 109.651C282.013 108.486 280.351 106.795 279.12 104.58C277.898 102.354 277.288 99.6458 277.288 96.4545C277.288 93.2538 277.898 90.5407 279.12 88.3153C280.351 86.09 282.013 84.3996 284.106 83.2443C286.199 82.089 288.552 81.5114 291.165 81.5114C293.77 81.5114 296.118 82.089 298.211 83.2443C300.313 84.3996 301.98 86.09 303.211 88.3153C304.442 90.5407 305.058 93.2538 305.058 96.4545ZM297.87 96.4545C297.87 94.5606 297.6 92.9602 297.06 91.6534C296.53 90.3466 295.763 89.357 294.759 88.6847C293.765 88.0123 292.567 87.6761 291.165 87.6761C289.773 87.6761 288.576 88.0123 287.572 88.6847C286.568 89.357 285.796 90.3466 285.256 91.6534C284.726 92.9602 284.461 94.5606 284.461 96.4545C284.461 98.3485 284.726 99.9489 285.256 101.256C285.796 102.562 286.568 103.552 287.572 104.224C288.576 104.897 289.773 105.233 291.165 105.233C292.567 105.233 293.765 104.897 294.759 104.224C295.763 103.552 296.53 102.562 297.06 101.256C297.6 99.9489 297.87 98.3485 297.87 96.4545ZM326.762 81.9091H333.779V100.673C333.779 102.842 333.263 104.731 332.231 106.341C331.199 107.941 329.759 109.182 327.913 110.062C326.066 110.934 323.921 111.369 321.478 111.369C319.006 111.369 316.847 110.934 315.001 110.062C313.154 109.182 311.719 107.941 310.697 106.341C309.674 104.731 309.163 102.842 309.163 100.673V81.9091H316.194V100.062C316.194 101.066 316.412 101.961 316.847 102.747C317.292 103.533 317.913 104.149 318.708 104.594C319.504 105.039 320.427 105.261 321.478 105.261C322.529 105.261 323.448 105.039 324.234 104.594C325.029 104.149 325.649 103.533 326.094 102.747C326.54 101.961 326.762 101.066 326.762 100.062V81.9091ZM338.186 111V81.9091H350.203C352.381 81.9091 354.261 82.3021 355.842 83.0881C357.433 83.8646 358.66 84.982 359.521 86.4403C360.383 87.8892 360.814 89.608 360.814 91.5966C360.814 93.6136 360.374 95.3277 359.493 96.7386C358.612 98.1402 357.362 99.2102 355.743 99.9489C354.124 100.678 352.206 101.043 349.99 101.043H342.391V95.5028H348.683C349.744 95.5028 350.629 95.3655 351.339 95.0909C352.059 94.8068 352.604 94.3807 352.973 93.8125C353.342 93.2348 353.527 92.4962 353.527 91.5966C353.527 90.697 353.342 89.9536 352.973 89.3665C352.604 88.7699 352.059 88.3248 351.339 88.0312C350.62 87.7282 349.734 87.5767 348.683 87.5767H345.217V111H338.186ZM354.564 97.7045L361.808 111H354.138L347.036 97.7045H354.564ZM368.577 111.412C367.554 111.412 366.678 111.052 365.949 110.332C365.229 109.613 364.874 108.741 364.884 107.719C364.874 106.715 365.229 105.858 365.949 105.148C366.678 104.428 367.554 104.068 368.577 104.068C369.543 104.068 370.395 104.428 371.134 105.148C371.882 105.858 372.26 106.715 372.27 107.719C372.26 108.401 372.08 109.021 371.73 109.58C371.389 110.138 370.939 110.583 370.381 110.915C369.831 111.246 369.23 111.412 368.577 111.412ZM394.457 81.9091H401.474V100.673C401.474 102.842 400.958 104.731 399.926 106.341C398.894 107.941 397.455 109.182 395.608 110.062C393.761 110.934 391.616 111.369 389.173 111.369C386.702 111.369 384.543 110.934 382.696 110.062C380.849 109.182 379.415 107.941 378.392 106.341C377.369 104.731 376.858 102.842 376.858 100.673V81.9091H383.889V100.062C383.889 101.066 384.107 101.961 384.543 102.747C384.988 103.533 385.608 104.149 386.403 104.594C387.199 105.039 388.122 105.261 389.173 105.261C390.224 105.261 391.143 105.039 391.929 104.594C392.724 104.149 393.345 103.533 393.79 102.747C394.235 101.961 394.457 101.066 394.457 100.062V81.9091ZM405.782 111V106.994L419.915 87.6193H405.796V81.9091H428.808V85.9148L414.674 105.29H428.793V111H405.782Z" fill="#2481C2"/>
<path d="M182.636 116.131V114.364H191.92V116.131H188.324V126H186.233V116.131H182.636ZM193.71 126V114.364H198.074C198.968 114.364 199.718 114.519 200.324 114.83C200.934 115.14 201.394 115.576 201.705 116.136C202.019 116.693 202.176 117.343 202.176 118.085C202.176 118.831 202.017 119.479 201.699 120.028C201.384 120.574 200.92 120.996 200.307 121.295C199.693 121.591 198.939 121.739 198.045 121.739H194.938V119.989H197.761C198.284 119.989 198.712 119.917 199.045 119.773C199.379 119.625 199.625 119.411 199.784 119.131C199.947 118.847 200.028 118.498 200.028 118.085C200.028 117.672 199.947 117.32 199.784 117.028C199.621 116.733 199.373 116.509 199.04 116.358C198.706 116.203 198.277 116.125 197.75 116.125H195.818V126H193.71ZM199.722 120.727L202.602 126H200.25L197.42 120.727H199.722ZM205.611 126H203.361L207.457 114.364H210.06L214.162 126H211.912L208.804 116.75H208.713L205.611 126ZM205.685 121.438H211.821V123.131H205.685V121.438ZM215.923 114.364L218.952 123.523H219.071L222.094 114.364H224.412L220.31 126H217.707L213.611 114.364H215.923ZM225.945 126V114.364H233.513V116.131H228.053V119.29H233.121V121.057H228.053V124.233H233.558V126H225.945ZM235.663 126V114.364H237.771V124.233H242.896V126H235.663ZM250.189 126H247.939L252.036 114.364H254.638L258.74 126H256.49L253.382 116.75H253.291L250.189 126ZM250.263 121.438H256.399V123.131H250.263V121.438ZM260.273 126V114.364H264.636C265.53 114.364 266.28 114.519 266.886 114.83C267.496 115.14 267.956 115.576 268.267 116.136C268.581 116.693 268.739 117.343 268.739 118.085C268.739 118.831 268.58 119.479 268.261 120.028C267.947 120.574 267.483 120.996 266.869 121.295C266.256 121.591 265.502 121.739 264.608 121.739H261.5V119.989H264.324C264.847 119.989 265.275 119.917 265.608 119.773C265.941 119.625 266.188 119.411 266.347 119.131C266.509 118.847 266.591 118.498 266.591 118.085C266.591 117.672 266.509 117.32 266.347 117.028C266.184 116.733 265.936 116.509 265.602 116.358C265.269 116.203 264.839 116.125 264.312 116.125H262.381V126H260.273ZM266.284 120.727L269.165 126H266.812L263.983 120.727H266.284ZM281.077 120.182C281.077 121.436 280.842 122.509 280.372 123.403C279.906 124.294 279.27 124.975 278.463 125.449C277.66 125.922 276.749 126.159 275.73 126.159C274.711 126.159 273.798 125.922 272.991 125.449C272.188 124.972 271.552 124.288 271.082 123.398C270.616 122.504 270.384 121.432 270.384 120.182C270.384 118.928 270.616 117.856 271.082 116.966C271.552 116.072 272.188 115.388 272.991 114.915C273.798 114.441 274.711 114.205 275.73 114.205C276.749 114.205 277.66 114.441 278.463 114.915C279.27 115.388 279.906 116.072 280.372 116.966C280.842 117.856 281.077 118.928 281.077 120.182ZM278.957 120.182C278.957 119.299 278.819 118.555 278.543 117.949C278.27 117.339 277.891 116.879 277.406 116.568C276.921 116.254 276.363 116.097 275.73 116.097C275.098 116.097 274.539 116.254 274.054 116.568C273.569 116.879 273.188 117.339 272.912 117.949C272.639 118.555 272.503 119.299 272.503 120.182C272.503 121.064 272.639 121.811 272.912 122.42C273.188 123.027 273.569 123.487 274.054 123.801C274.539 124.112 275.098 124.267 275.73 124.267C276.363 124.267 276.921 124.112 277.406 123.801C277.891 123.487 278.27 123.027 278.543 122.42C278.819 121.811 278.957 121.064 278.957 120.182ZM290.405 114.364H292.513V121.966C292.513 122.799 292.316 123.532 291.922 124.165C291.532 124.797 290.982 125.292 290.274 125.648C289.566 126 288.738 126.176 287.791 126.176C286.84 126.176 286.011 126 285.303 125.648C284.594 125.292 284.045 124.797 283.655 124.165C283.265 123.532 283.07 122.799 283.07 121.966V114.364H285.178V121.79C285.178 122.275 285.284 122.706 285.496 123.085C285.712 123.464 286.015 123.761 286.405 123.977C286.795 124.189 287.257 124.295 287.791 124.295C288.325 124.295 288.787 124.189 289.178 123.977C289.571 123.761 289.875 123.464 290.087 123.085C290.299 122.706 290.405 122.275 290.405 121.79V114.364ZM304.366 114.364V126H302.491L297.009 118.074H296.912V126H294.804V114.364H296.69L302.168 122.295H302.27V114.364H304.366ZM310.607 126H306.663V114.364H310.686C311.841 114.364 312.834 114.597 313.663 115.062C314.497 115.525 315.137 116.189 315.584 117.057C316.031 117.924 316.254 118.962 316.254 120.17C316.254 121.383 316.029 122.424 315.578 123.295C315.131 124.167 314.485 124.835 313.641 125.301C312.8 125.767 311.788 126 310.607 126ZM308.771 124.176H310.504C311.315 124.176 311.991 124.028 312.533 123.733C313.074 123.434 313.482 122.989 313.754 122.398C314.027 121.803 314.163 121.061 314.163 120.17C314.163 119.28 314.027 118.542 313.754 117.955C313.482 117.364 313.078 116.922 312.544 116.631C312.014 116.335 311.355 116.188 310.567 116.188H308.771V124.176ZM329.561 114.364H331.669V121.966C331.669 122.799 331.472 123.532 331.078 124.165C330.688 124.797 330.139 125.292 329.43 125.648C328.722 126 327.894 126.176 326.947 126.176C325.997 126.176 325.167 126 324.459 125.648C323.75 125.292 323.201 124.797 322.811 124.165C322.421 123.532 322.226 122.799 322.226 121.966V114.364H324.334V121.79C324.334 122.275 324.44 122.706 324.652 123.085C324.868 123.464 325.171 123.761 325.561 123.977C325.951 124.189 326.413 124.295 326.947 124.295C327.482 124.295 327.944 124.189 328.334 123.977C328.728 123.761 329.031 123.464 329.243 123.085C329.455 122.706 329.561 122.275 329.561 121.79V114.364ZM333.744 126V124.688L339.71 116.131H333.71V114.364H342.324V115.676L336.364 124.233H342.358V126H333.744ZM344.398 126V114.364H348.852C349.693 114.364 350.392 114.496 350.949 114.761C351.509 115.023 351.928 115.381 352.205 115.835C352.485 116.29 352.625 116.805 352.625 117.381C352.625 117.854 352.534 118.259 352.352 118.597C352.17 118.93 351.926 119.201 351.619 119.409C351.312 119.617 350.97 119.767 350.591 119.858V119.972C351.004 119.994 351.4 120.121 351.778 120.352C352.161 120.58 352.473 120.902 352.716 121.318C352.958 121.735 353.08 122.239 353.08 122.83C353.08 123.432 352.934 123.973 352.642 124.455C352.35 124.932 351.911 125.309 351.324 125.585C350.737 125.862 349.998 126 349.108 126H344.398ZM346.506 124.239H348.773C349.538 124.239 350.089 124.093 350.426 123.801C350.767 123.506 350.938 123.127 350.938 122.665C350.938 122.32 350.852 122.009 350.682 121.733C350.511 121.453 350.269 121.233 349.955 121.074C349.64 120.911 349.265 120.83 348.83 120.83H346.506V124.239ZM346.506 119.312H348.591C348.955 119.312 349.282 119.246 349.574 119.114C349.866 118.977 350.095 118.786 350.261 118.54C350.432 118.29 350.517 117.994 350.517 117.653C350.517 117.203 350.358 116.831 350.04 116.54C349.725 116.248 349.258 116.102 348.636 116.102H346.506V119.312ZM354.913 126V114.364H362.482V116.131H357.021V119.29H362.089V121.057H357.021V124.233H362.527V126H354.913ZM364.632 126V114.364H366.74V119.71H366.882L371.422 114.364H373.996L369.496 119.585L374.036 126H371.501L368.03 121.011L366.74 122.534V126H364.632ZM377.568 114.364V126H375.46V114.364H377.568ZM386.175 117.562C386.122 117.066 385.898 116.68 385.504 116.403C385.114 116.127 384.607 115.989 383.982 115.989C383.542 115.989 383.165 116.055 382.851 116.188C382.536 116.32 382.296 116.5 382.129 116.727C381.963 116.955 381.877 117.214 381.874 117.506C381.874 117.748 381.929 117.958 382.038 118.136C382.152 118.314 382.305 118.466 382.499 118.591C382.692 118.712 382.906 118.814 383.141 118.898C383.375 118.981 383.612 119.051 383.851 119.108L384.942 119.381C385.381 119.483 385.804 119.621 386.209 119.795C386.618 119.97 386.983 120.189 387.305 120.455C387.631 120.72 387.889 121.04 388.078 121.415C388.268 121.79 388.362 122.229 388.362 122.733C388.362 123.415 388.188 124.015 387.839 124.534C387.491 125.049 386.987 125.453 386.328 125.744C385.673 126.032 384.879 126.176 383.947 126.176C383.042 126.176 382.256 126.036 381.589 125.756C380.927 125.475 380.408 125.066 380.033 124.528C379.661 123.991 379.461 123.335 379.43 122.562H381.504C381.535 122.968 381.66 123.305 381.879 123.574C382.099 123.843 382.385 124.044 382.737 124.176C383.093 124.309 383.491 124.375 383.93 124.375C384.389 124.375 384.79 124.307 385.135 124.17C385.483 124.03 385.756 123.837 385.953 123.591C386.15 123.341 386.25 123.049 386.254 122.716C386.25 122.413 386.161 122.163 385.987 121.966C385.813 121.765 385.569 121.598 385.254 121.466C384.944 121.33 384.58 121.208 384.163 121.102L382.839 120.761C381.881 120.515 381.124 120.142 380.567 119.642C380.014 119.138 379.737 118.47 379.737 117.636C379.737 116.951 379.923 116.35 380.294 115.835C380.669 115.32 381.179 114.92 381.822 114.636C382.466 114.348 383.196 114.205 384.01 114.205C384.836 114.205 385.559 114.348 386.18 114.636C386.805 114.92 387.296 115.316 387.652 115.824C388.008 116.328 388.192 116.907 388.203 117.562H386.175ZM389.73 116.131V114.364H399.014V116.131H395.418V126H393.327V116.131H389.73ZM400.892 126H398.642L402.739 114.364H405.341L409.443 126H407.193L404.085 116.75H403.994L400.892 126ZM400.966 121.438H407.102V123.131H400.966V121.438ZM420.538 114.364V126H418.663L413.18 118.074H413.084V126H410.976V114.364H412.862L418.339 122.295H418.442V114.364H420.538Z" fill="#FA9507"/>
</svg>
