<svg width="602" height="197" viewBox="0 0 602 197" fill="none" xmlns="http://www.w3.org/2000/svg">
<path d="M81.4998 58.2676C97.8365 58.2676 111.912 67.9413 118.315 81.8721L118 81.7676L115 83.7676L101 72.7676L95.9998 98.7676L86.9998 93.2676L84.9998 106.268L69.4998 94.2676L62.4998 134.268L62.7801 134.688C49.8365 127.928 40.9998 114.381 40.9998 98.7676C40.9998 76.4 59.1323 58.2676 81.4998 58.2676Z" fill="#5399C8"/>
<path d="M82.5 34.2666C118.499 36.7676 133.499 46.2682 128.5 60.7676C127.204 64.5274 124.565 70.2025 120.509 76.9717C113.006 63.4334 98.5746 54.2668 82 54.2666C57.6997 54.2666 38.0004 73.9664 38 98.2666C38 114.697 47.0068 129.022 60.3516 136.579C52.002 141.529 42.844 145.979 32.8496 149.639C31.6372 150.674 26.3163 150.392 16.5 113.767C8.00038 66.267 36.3845 34.2666 82.5 34.2666Z" fill="#EE9C46"/>
<path d="M91.4998 142.768C98.9715 139.032 106.544 133.625 112.5 127.768C118.455 121.91 123.358 112.692 126 104.768C132.5 85.2676 140 62.2676 140 62.2676C140 62.2676 150.387 79.77 151.5 92.2676C152.648 105.16 151.618 112.84 148 125.268C144.249 138.149 140.025 145.661 132.5 156.768C124.974 167.875 115.399 179.168 105 188.268C96.9998 195.268 91.7435 196.689 80.4998 195.768C71.0097 194.99 62.3712 184.562 54.4998 177.768C47.3896 171.63 41.9998 163.268 41.9998 163.268C41.9998 163.268 54.4998 158.768 68.4998 154.268C82.4998 149.768 80.4998 148.268 91.4998 142.768Z" fill="#5399C8"/>
<path fill-rule="evenodd" clip-rule="evenodd" d="M151.801 29.9799L165.903 37.2543C166.357 37.3438 166.82 37.2735 167.222 37.0529C167.657 36.8074 167.967 36.4144 168.09 35.9693C168.203 34.2696 161.649 27.5464 154.209 20.9942L151.801 29.9799Z" fill="#F79730"/>
<path fill-rule="evenodd" clip-rule="evenodd" d="M153.137 1.35782C151.191 0.83282 149.696 1.86783 149.248 3.52763L145.59 17.0723C139.503 18.4036 128.374 20.6117 124.863 22.6387C124.374 22.9213 124.19 23.1004 124.13 23.1663C123.924 24.0868 124.444 25.0161 125.333 25.3186L143.091 26.3189L140.372 36.3842C140.372 36.3842 134.85 38.2165 134.074 38.5382C132.992 38.9884 132.34 40.5403 135.14 40.3952C138.408 40.222 142.228 40.008 142.228 40.008C142.228 40.008 146.094 42.4992 148.333 43.8089C151.112 45.3525 151.282 43.7269 150.411 42.609C149.545 41.4942 146.613 37.7265 146.613 37.7265L149.054 27.9006L151.588 18.5067L155.197 5.1396C155.647 3.47858 155.077 1.88104 153.137 1.35782Z" fill="#F79730"/>
<path d="M0 157.001C0 157.001 34.3517 155.528 53.5 146.501C71.732 137.906 81.9224 129.421 96.5 115.501C118.473 94.5188 138 49.001 138 49.001C138 49.001 136.215 67.8473 128.5 84.001C119.76 102.3 117.444 113.969 101.5 126.501C88.043 137.078 71.8176 148.833 55.5 154.001C38.2292 159.471 9.5 160.001 9.5 160.001L0 157.001Z" fill="#EE9C46"/>
<path d="M186.523 114V67.4545H205.932C209.417 67.4545 212.333 67.947 214.682 68.9318C217.045 69.9167 218.818 71.2955 220 73.0682C221.197 74.8409 221.795 76.8939 221.795 79.2273C221.795 81 221.424 82.5833 220.682 83.9773C219.939 85.3561 218.917 86.5 217.614 87.4091C216.311 88.3182 214.803 88.9545 213.091 89.3182V89.7727C214.97 89.8636 216.705 90.3712 218.295 91.2955C219.902 92.2197 221.189 93.5076 222.159 95.1591C223.129 96.7955 223.614 98.7348 223.614 100.977C223.614 103.477 222.977 105.712 221.705 107.682C220.432 109.636 218.591 111.182 216.182 112.318C213.773 113.439 210.848 114 207.409 114H186.523ZM197.773 104.932H204.727C207.167 104.932 208.962 104.47 210.114 103.545C211.28 102.621 211.864 101.333 211.864 99.6818C211.864 98.4848 211.583 97.4545 211.023 96.5909C210.462 95.7121 209.667 95.0379 208.636 94.5682C207.606 94.0833 206.371 93.8409 204.932 93.8409H197.773V104.932ZM197.773 86.5909H204C205.227 86.5909 206.318 86.3864 207.273 85.9773C208.227 85.5682 208.97 84.9773 209.5 84.2045C210.045 83.4318 210.318 82.5 210.318 81.4091C210.318 79.8485 209.765 78.6212 208.659 77.7273C207.553 76.8333 206.061 76.3864 204.182 76.3864H197.773V86.5909ZM229.023 114V67.4545H261.477V76.5909H240.273V86.1364H259.818V95.2955H240.273V104.864H261.477V114H229.023ZM293.682 81.4091C293.53 79.7424 292.856 78.447 291.659 77.5227C290.477 76.5833 288.788 76.1136 286.591 76.1136C285.136 76.1136 283.924 76.303 282.955 76.6818C281.985 77.0606 281.258 77.5833 280.773 78.25C280.288 78.9015 280.038 79.6515 280.023 80.5C279.992 81.197 280.129 81.8106 280.432 82.3409C280.75 82.8712 281.205 83.3409 281.795 83.75C282.402 84.1439 283.129 84.4924 283.977 84.7955C284.826 85.0985 285.78 85.3636 286.841 85.5909L290.841 86.5C293.144 87 295.174 87.6667 296.932 88.5C298.705 89.3333 300.189 90.3258 301.386 91.4773C302.598 92.6288 303.515 93.9545 304.136 95.4545C304.758 96.9545 305.076 98.6364 305.091 100.5C305.076 103.439 304.333 105.962 302.864 108.068C301.394 110.174 299.28 111.788 296.523 112.909C293.78 114.03 290.47 114.591 286.591 114.591C282.697 114.591 279.303 114.008 276.409 112.841C273.515 111.674 271.265 109.902 269.659 107.523C268.053 105.144 267.227 102.136 267.182 98.5H277.955C278.045 100 278.447 101.25 279.159 102.25C279.871 103.25 280.848 104.008 282.091 104.523C283.348 105.038 284.803 105.295 286.455 105.295C287.97 105.295 289.258 105.091 290.318 104.682C291.394 104.273 292.22 103.705 292.795 102.977C293.371 102.25 293.667 101.417 293.682 100.477C293.667 99.5985 293.394 98.8485 292.864 98.2273C292.333 97.5909 291.515 97.0455 290.409 96.5909C289.318 96.1212 287.924 95.6894 286.227 95.2955L281.364 94.1591C277.333 93.2348 274.159 91.7424 271.841 89.6818C269.523 87.6061 268.371 84.803 268.386 81.2727C268.371 78.3939 269.144 75.8712 270.705 73.7045C272.265 71.5379 274.424 69.8485 277.182 68.6364C279.939 67.4242 283.083 66.8182 286.614 66.8182C290.22 66.8182 293.348 67.4318 296 68.6591C298.667 69.8712 300.735 71.5758 302.205 73.7727C303.674 75.9697 304.424 78.5151 304.455 81.4091H293.682ZM309.25 76.5909V67.4545H348.591V76.5909H334.477V114H323.386V76.5909H309.25ZM395.892 90.7273C395.892 95.8485 394.907 100.189 392.938 103.75C390.968 107.311 388.301 110.015 384.938 111.864C381.589 113.712 377.831 114.636 373.665 114.636C369.483 114.636 365.718 113.705 362.369 111.841C359.021 109.977 356.362 107.273 354.392 103.727C352.438 100.167 351.46 95.8333 351.46 90.7273C351.46 85.6061 352.438 81.2652 354.392 77.7045C356.362 74.1439 359.021 71.4394 362.369 69.5909C365.718 67.7424 369.483 66.8182 373.665 66.8182C377.831 66.8182 381.589 67.7424 384.938 69.5909C388.301 71.4394 390.968 74.1439 392.938 77.7045C394.907 81.2652 395.892 85.6061 395.892 90.7273ZM384.392 90.7273C384.392 87.697 383.96 85.1364 383.097 83.0455C382.248 80.9545 381.021 79.3712 379.415 78.2955C377.824 77.2197 375.907 76.6818 373.665 76.6818C371.438 76.6818 369.521 77.2197 367.915 78.2955C366.309 79.3712 365.074 80.9545 364.21 83.0455C363.362 85.1364 362.938 87.697 362.938 90.7273C362.938 93.7576 363.362 96.3182 364.21 98.4091C365.074 100.5 366.309 102.083 367.915 103.159C369.521 104.235 371.438 104.773 373.665 104.773C375.907 104.773 377.824 104.235 379.415 103.159C381.021 102.083 382.248 100.5 383.097 98.4091C383.96 96.3182 384.392 93.7576 384.392 90.7273ZM430.619 67.4545H441.847V97.4773C441.847 100.947 441.021 103.97 439.369 106.545C437.718 109.106 435.415 111.091 432.46 112.5C429.506 113.894 426.074 114.591 422.165 114.591C418.21 114.591 414.756 113.894 411.801 112.5C408.847 111.091 406.551 109.106 404.915 106.545C403.278 103.97 402.46 100.947 402.46 97.4773V67.4545H413.71V96.5C413.71 98.1061 414.059 99.5379 414.756 100.795C415.468 102.053 416.46 103.038 417.733 103.75C419.006 104.462 420.483 104.818 422.165 104.818C423.847 104.818 425.316 104.462 426.574 103.75C427.847 103.038 428.839 102.053 429.551 100.795C430.263 99.5379 430.619 98.1061 430.619 96.5V67.4545ZM448.898 114V67.4545H468.125C471.61 67.4545 474.617 68.0833 477.148 69.3409C479.693 70.5833 481.655 72.3712 483.034 74.7045C484.413 77.0227 485.102 79.7727 485.102 82.9545C485.102 86.1818 484.398 88.9242 482.989 91.1818C481.58 93.4242 479.58 95.1364 476.989 96.3182C474.398 97.4848 471.33 98.0682 467.784 98.0682H455.625V89.2045H465.693C467.39 89.2045 468.807 88.9848 469.943 88.5455C471.095 88.0909 471.966 87.4091 472.557 86.5C473.148 85.5758 473.443 84.3939 473.443 82.9545C473.443 81.5151 473.148 80.3258 472.557 79.3864C471.966 78.4318 471.095 77.7197 469.943 77.25C468.792 76.7652 467.375 76.5227 465.693 76.5227H460.148V114H448.898ZM475.102 92.7273L486.693 114H474.42L463.057 92.7273H475.102ZM497.523 114.659C495.886 114.659 494.485 114.083 493.318 112.932C492.167 111.78 491.598 110.386 491.614 108.75C491.598 107.144 492.167 105.773 493.318 104.636C494.485 103.485 495.886 102.909 497.523 102.909C499.068 102.909 500.432 103.485 501.614 104.636C502.811 105.773 503.417 107.144 503.432 108.75C503.417 109.841 503.129 110.833 502.568 111.727C502.023 112.621 501.303 113.333 500.409 113.864C499.53 114.394 498.568 114.659 497.523 114.659ZM538.932 67.4545H550.159V97.4773C550.159 100.947 549.333 103.97 547.682 106.545C546.03 109.106 543.727 111.091 540.773 112.5C537.818 113.894 534.386 114.591 530.477 114.591C526.523 114.591 523.068 113.894 520.114 112.5C517.159 111.091 514.864 109.106 513.227 106.545C511.591 103.97 510.773 100.947 510.773 97.4773V67.4545H522.023V96.5C522.023 98.1061 522.371 99.5379 523.068 100.795C523.78 102.053 524.773 103.038 526.045 103.75C527.318 104.462 528.795 104.818 530.477 104.818C532.159 104.818 533.629 104.462 534.886 103.75C536.159 103.038 537.152 102.053 537.864 100.795C538.576 99.5379 538.932 98.1061 538.932 96.5V67.4545ZM557.051 114V107.591L579.665 76.5909H557.074V67.4545H593.892V73.8636L571.278 104.864H593.869V114H557.051Z" fill="#2481C2"/>
<path d="M180.114 130.134V127.042H196.361V130.134H190.067V147.405H186.408V130.134H180.114ZM199.493 147.405V127.042H207.129C208.694 127.042 210.006 127.313 211.067 127.857C212.134 128.401 212.939 129.163 213.483 130.144C214.033 131.118 214.308 132.255 214.308 133.554C214.308 134.86 214.03 135.994 213.473 136.955C212.923 137.91 212.111 138.649 211.037 139.172C209.963 139.689 208.644 139.948 207.08 139.948H201.641V136.885H206.582C207.497 136.885 208.246 136.759 208.83 136.508C209.413 136.249 209.844 135.874 210.122 135.384C210.407 134.887 210.55 134.277 210.55 133.554C210.55 132.832 210.407 132.215 210.122 131.705C209.837 131.188 209.403 130.797 208.82 130.532C208.236 130.26 207.484 130.124 206.562 130.124H203.182V147.405H199.493ZM210.013 138.178L215.054 147.405H210.938L205.986 138.178H210.013ZM220.319 147.405H216.381L223.55 127.042H228.104L235.283 147.405H231.346L225.907 131.218H225.748L220.319 147.405ZM220.448 139.421H231.187V142.384H220.448V139.421ZM238.366 127.042L243.665 143.07H243.874L249.164 127.042H253.221L246.042 147.405H241.488L234.319 127.042H238.366ZM255.903 147.405V127.042H269.147V130.134H259.592V135.662H268.461V138.755H259.592V144.313H269.227V147.405H255.903ZM272.911 147.405V127.042H276.6V144.313H285.569V147.405H272.911ZM298.331 147.405H294.393L301.562 127.042H306.116L313.295 147.405H309.358L303.919 131.218H303.76L298.331 147.405ZM298.46 139.421H309.199V142.384H298.46V139.421ZM315.977 147.405V127.042H323.614C325.178 127.042 326.491 127.313 327.551 127.857C328.618 128.401 329.424 129.163 329.967 130.144C330.518 131.118 330.793 132.255 330.793 133.554C330.793 134.86 330.514 135.994 329.957 136.955C329.407 137.91 328.595 138.649 327.521 139.172C326.447 139.689 325.128 139.948 323.564 139.948H318.125V136.885H323.067C323.982 136.885 324.731 136.759 325.314 136.508C325.897 136.249 326.328 135.874 326.607 135.384C326.892 134.887 327.034 134.277 327.034 133.554C327.034 132.832 326.892 132.215 326.607 131.705C326.321 131.188 325.887 130.797 325.304 130.532C324.721 130.26 323.968 130.124 323.047 130.124H319.666V147.405H315.977ZM326.497 138.178L331.538 147.405H327.422L322.47 138.178H326.497ZM352.384 137.223C352.384 139.418 351.973 141.297 351.151 142.861C350.336 144.419 349.222 145.612 347.81 146.441C346.405 147.269 344.811 147.684 343.028 147.684C341.245 147.684 339.647 147.269 338.235 146.441C336.83 145.606 335.716 144.409 334.894 142.851C334.079 141.287 333.671 139.411 333.671 137.223C333.671 135.029 334.079 133.153 334.894 131.596C335.716 130.031 336.83 128.835 338.235 128.006C339.647 127.178 341.245 126.763 343.028 126.763C344.811 126.763 346.405 127.178 347.81 128.006C349.222 128.835 350.336 130.031 351.151 131.596C351.973 133.153 352.384 135.029 352.384 137.223ZM348.675 137.223C348.675 135.679 348.433 134.376 347.95 133.316C347.472 132.249 346.809 131.443 345.961 130.9C345.112 130.349 344.135 130.074 343.028 130.074C341.921 130.074 340.943 130.349 340.094 130.9C339.246 131.443 338.58 132.249 338.096 133.316C337.619 134.376 337.38 135.679 337.38 137.223C337.38 138.768 337.619 140.074 338.096 141.141C338.58 142.202 339.246 143.007 340.094 143.557C340.943 144.101 341.921 144.373 343.028 144.373C344.135 144.373 345.112 144.101 345.961 143.557C346.809 143.007 347.472 142.202 347.95 141.141C348.433 140.074 348.675 138.768 348.675 137.223ZM368.708 127.042H372.397V140.346C372.397 141.804 372.053 143.087 371.363 144.194C370.681 145.301 369.719 146.166 368.48 146.789C367.24 147.405 365.792 147.714 364.135 147.714C362.471 147.714 361.019 147.405 359.779 146.789C358.54 146.166 357.579 145.301 356.896 144.194C356.213 143.087 355.872 141.804 355.872 140.346V127.042H359.561V140.037C359.561 140.886 359.746 141.642 360.118 142.304C360.495 142.967 361.026 143.488 361.708 143.866C362.391 144.237 363.2 144.422 364.135 144.422C365.069 144.422 365.878 144.237 366.561 143.866C367.25 143.488 367.78 142.967 368.152 142.304C368.523 141.642 368.708 140.886 368.708 140.037V127.042ZM393.141 127.042V147.405H389.86L380.265 133.535H380.096V147.405H376.407V127.042H379.708L389.293 140.922H389.472V127.042H393.141ZM404.061 147.405H397.161V127.042H404.201C406.222 127.042 407.959 127.449 409.411 128.265C410.869 129.073 411.989 130.237 412.772 131.755C413.554 133.273 413.945 135.089 413.945 137.204C413.945 139.325 413.551 141.148 412.762 142.672C411.98 144.197 410.849 145.367 409.371 146.182C407.9 146.998 406.13 147.405 404.061 147.405ZM400.85 144.214H403.882C405.301 144.214 406.484 143.955 407.432 143.438C408.38 142.914 409.093 142.135 409.57 141.101C410.047 140.061 410.286 138.761 410.286 137.204C410.286 135.646 410.047 134.353 409.57 133.326C409.093 132.292 408.387 131.519 407.452 131.009C406.524 130.492 405.371 130.233 403.992 130.233H400.85V144.214ZM437.232 127.042H440.921V140.346C440.921 141.804 440.576 143.087 439.887 144.194C439.204 145.301 438.243 146.166 437.003 146.789C435.764 147.405 434.315 147.714 432.658 147.714C430.994 147.714 429.542 147.405 428.303 146.789C427.063 146.166 426.102 145.301 425.419 144.194C424.737 143.087 424.395 141.804 424.395 140.346V127.042H428.084V140.037C428.084 140.886 428.27 141.642 428.641 142.304C429.019 142.967 429.549 143.488 430.232 143.866C430.915 144.237 431.723 144.422 432.658 144.422C433.593 144.422 434.401 144.237 435.084 143.866C435.774 143.488 436.304 142.967 436.675 142.304C437.046 141.642 437.232 140.886 437.232 140.037V127.042ZM444.553 147.405V145.108L454.993 130.134H444.493V127.042H459.567V129.339L449.136 144.313H459.626V147.405H444.553ZM463.196 147.405V127.042H470.991C472.463 127.042 473.686 127.274 474.661 127.738C475.642 128.195 476.374 128.821 476.858 129.617C477.348 130.412 477.594 131.314 477.594 132.321C477.594 133.15 477.435 133.859 477.116 134.449C476.798 135.033 476.371 135.507 475.834 135.871C475.297 136.236 474.697 136.498 474.034 136.657V136.856C474.757 136.895 475.449 137.117 476.112 137.522C476.782 137.919 477.329 138.483 477.753 139.212C478.177 139.941 478.389 140.823 478.389 141.857C478.389 142.911 478.134 143.859 477.624 144.701C477.113 145.536 476.344 146.196 475.317 146.679C474.289 147.163 472.997 147.405 471.439 147.405H463.196ZM466.885 144.323H470.852C472.191 144.323 473.156 144.068 473.746 143.557C474.342 143.04 474.641 142.377 474.641 141.569C474.641 140.965 474.491 140.422 474.193 139.938C473.895 139.447 473.471 139.063 472.92 138.785C472.37 138.499 471.714 138.357 470.952 138.357H466.885V144.323ZM466.885 135.702H470.534C471.17 135.702 471.744 135.586 472.254 135.354C472.765 135.116 473.166 134.781 473.457 134.35C473.756 133.912 473.905 133.395 473.905 132.799C473.905 132.01 473.626 131.36 473.07 130.85C472.519 130.339 471.701 130.084 470.614 130.084H466.885V135.702ZM481.598 147.405V127.042H494.843V130.134H485.287V135.662H494.157V138.755H485.287V144.313H494.922V147.405H481.598ZM498.606 147.405V127.042H502.295V136.398H502.544L510.488 127.042H514.993L507.118 136.179L515.062 147.405H510.627L504.552 138.675L502.295 141.34V147.405H498.606ZM521.244 127.042V147.405H517.555V127.042H521.244ZM536.306 132.64C536.213 131.771 535.822 131.095 535.132 130.611C534.45 130.127 533.561 129.885 532.468 129.885C531.699 129.885 531.039 130.001 530.489 130.233C529.939 130.465 529.518 130.78 529.226 131.178C528.935 131.576 528.785 132.03 528.779 132.54C528.779 132.964 528.875 133.332 529.067 133.644C529.266 133.955 529.534 134.221 529.873 134.439C530.211 134.651 530.585 134.83 530.996 134.976C531.407 135.122 531.821 135.245 532.239 135.344L534.148 135.821C534.917 136 535.656 136.242 536.365 136.547C537.081 136.852 537.721 137.237 538.284 137.701C538.855 138.165 539.305 138.725 539.637 139.381C539.968 140.037 540.134 140.806 540.134 141.688C540.134 142.881 539.829 143.932 539.219 144.84C538.609 145.741 537.728 146.447 536.574 146.958C535.427 147.462 534.039 147.714 532.408 147.714C530.824 147.714 529.448 147.468 528.282 146.978C527.122 146.487 526.213 145.771 525.557 144.83C524.908 143.889 524.556 142.742 524.503 141.39H528.132C528.185 142.099 528.404 142.689 528.789 143.16C529.173 143.63 529.674 143.982 530.29 144.214C530.913 144.446 531.609 144.562 532.378 144.562C533.18 144.562 533.883 144.442 534.486 144.204C535.096 143.958 535.573 143.62 535.918 143.189C536.263 142.752 536.438 142.241 536.445 141.658C536.438 141.128 536.283 140.69 535.978 140.346C535.673 139.994 535.245 139.703 534.695 139.471C534.151 139.232 533.515 139.02 532.786 138.834L530.469 138.238C528.792 137.807 527.466 137.154 526.492 136.279C525.524 135.397 525.04 134.227 525.04 132.769C525.04 131.569 525.365 130.518 526.015 129.617C526.671 128.715 527.562 128.016 528.689 127.519C529.816 127.015 531.092 126.763 532.517 126.763C533.962 126.763 535.229 127.015 536.316 127.519C537.409 128.016 538.268 128.709 538.891 129.597C539.514 130.479 539.836 131.493 539.855 132.64H536.306ZM542.528 130.134V127.042H558.775V130.134H552.481V147.405H548.822V130.134H542.528ZM562.061 147.405H558.124L565.293 127.042H569.847L577.026 147.405H573.088L567.649 131.218H567.49L562.061 147.405ZM562.19 139.421H572.929V142.384H562.19V139.421ZM596.442 127.042V147.405H593.161L583.566 133.535H583.397V147.405H579.708V127.042H583.009L592.594 140.922H592.773V127.042H596.442Z" fill="#FA9507"/>
</svg>
